Coordinates
version=1
nRows=29
nColumns=18
inDegrees=yes

Units are S.I. units (second, meters, Newtons, ...)
Angles are in degrees.

endheader
time	ground_thorax_rot_x	ground_thorax_rot_y	ground_thorax_rot_z	ground_thorax_tx	ground_thorax_ty	ground_thorax_tz	clav_prot	clav_elev	scapula_abduction	scapula_elevation	scapula_upward_rot	scapula_winging	plane_elv	shoulder_elv	axial_rot	elbow_flexion	pro_sup
      5.80000000	      1.43426039	     -4.08088792	     -9.34289121	     -0.00423131	      0.00403036	     -0.00078352	    -20.33010251	     -3.87853782	     -8.09062110	     -3.84868861	     14.03719318	      4.83097249	    -10.52157771	     16.87122834	     35.12823049	      0.00000000	     34.32000000
      5.81000000	      1.53934864	     -4.13907031	     -9.48534110	     -0.00423131	      0.00403036	     -0.00078352	    -20.36891891	     -3.86279601	     -8.15843156	     -3.84064236	     14.04407146	      4.82897404	    -10.77336300	     17.34154882	     35.18732829	      0.00000000	     34.32000000
      5.82000000	      1.41424770	     -4.20088956	     -9.36677317	     -0.00423131	      0.00403036	     -0.00078352	    -20.28027775	     -3.91782281	     -8.02201682	     -3.86351527	     13.98936252	      4.84989736	    -12.84303000	     17.66388965	     35.04190739	      0.00000000	     34.32000000
      5.83000000	      1.56222803	     -4.07221194	     -9.56226607	     -0.00423131	      0.00403036	     -0.00078352	    -20.47591484	     -4.00390045	     -8.24198051	     -3.98445634	     14.15928470	      4.85407096	    -13.37470772	     17.94238416	     33.86246283	      0.00000000	     34.32000000
      5.84000000	      1.59991368	     -4.15384550	     -9.65115091	     -0.00423131	      0.00403036	     -0.00078352	    -20.47159027	     -3.97692141	     -8.27211186	     -3.94986925	     14.10669755	      4.85883235	    -13.42357835	     17.99262825	     33.87684329	      0.00000000	     34.32000000
      5.85000000	      1.49435410	     -4.08974073	     -9.27492091	     -0.00423131	      0.00403036	     -0.00078352	    -20.31325822	     -3.93360153	     -8.01671904	     -3.90332412	     14.08910193	      4.83278275	    -16.94099163	     17.69238447	     38.98045015	      0.00000000	     34.32000000
      5.86000000	      1.54805870	     -3.90718823	     -9.21521666	     -0.00423131	      0.00403036	     -0.00078352	    -20.45939387	     -3.82372126	     -8.34191206	     -3.80898244	     14.01768246	      4.83353828	    -17.56759507	     17.73199135	     38.79702726	      0.00000000	     34.32000000
      5.87000000	      1.58873832	     -3.76262957	     -9.26847723	     -0.00423131	      0.00403036	     -0.00078352	    -20.71558579	     -3.61568273	     -8.68690553	     -3.73263467	     14.28022376	      4.73018377	    -18.72251086	     17.14831584	     41.77309096	      0.00000000	     34.32000000
      5.88000000	      1.63464620	     -3.84444897	     -9.38514372	     -0.00423131	      0.00403036	     -0.00078352	    -20.70528126	     -3.59561901	     -8.70943855	     -3.70115660	     14.22028930	      4.73795499	    -18.74750590	     17.15907845	     41.78664190	      0.00000000	     34.32000000
      5.89000000	      1.67154279	     -3.78016575	     -9.30630221	     -0.00423131	      0.00403036	     -0.00078352	    -20.71476008	     -3.66391087	     -8.94588117	     -3.64929879	     13.81865789	      4.86250918	    -19.26621731	     17.68437271	     41.00733534	      0.00000000	     34.32000000
      5.90000000	      1.45123286	     -3.86329145	     -9.22625529	     -0.00423131	      0.00403036	     -0.00078352	    -20.57924322	     -3.89238879	     -8.62715305	     -3.82697701	     13.85942021	      4.90717497	    -22.53395967	     17.18825157	     45.62348958	      0.00000000	     34.32000000
      5.91000000	      1.51790268	     -3.80046344	     -9.24792151	     -0.00423131	      0.00403036	     -0.00078352	    -20.57594809	     -3.89725784	     -8.62616617	     -3.82784556	     13.84920818	      4.91092887	    -24.73338541	     16.76910395	     51.16827122	      0.00000000	     34.32000000
      5.92000000	      1.44336177	     -3.65698198	     -9.18946219	     -0.00423131	      0.00403036	     -0.00078352	    -20.66083718	     -4.04411963	     -8.90117549	     -3.87232592	     13.57069235	      5.03550756	    -25.61243335	     16.95357855	     51.40043204	      0.00000000	     34.32000000
      5.93000000	      1.52469870	     -3.74602626	     -9.29557938	     -0.00423131	      0.00403036	     -0.00078352	    -20.66292041	     -4.02313013	     -8.93852909	     -3.84347894	     13.52170795	      5.04164539	    -25.63512417	     16.97916049	     51.40946301	      0.00000000	     34.32000000
      5.94000000	      1.33803822	     -3.47021640	     -9.19166900	     -0.00423131	      0.00403036	     -0.00078352	    -20.89065863	     -4.22808578	     -9.41851830	     -3.95323058	     13.29217482	      5.18544838	    -27.44217500	     17.02366487	     52.35875133	      0.00000000	     34.32000000
      5.95000000	      1.65447115	     -3.30838950	     -9.13838099	     -0.00423131	      0.00403036	     -0.00078352	    -21.11835602	     -3.87215597	     -9.78451709	     -3.74764542	     13.49808449	      5.04307992	    -28.87266914	     16.67164657	     58.69208018	      0.00000000	     34.32000000
      5.96000000	      1.73237689	     -3.38972350	     -9.21809069	     -0.00423131	      0.00403036	     -0.00078352	    -21.11154090	     -3.87566100	     -9.80260555	     -3.73616132	     13.44563010	      5.05746992	    -28.89811584	     16.67241202	     58.68976151	      0.00000000	     34.32000000
      5.97000000	      1.57102958	     -3.41498330	     -9.17495663	     -0.00423131	      0.00403036	     -0.00078352	    -21.03534850	     -3.99085663	     -9.68105920	     -3.80181711	     13.37630967	      5.10364080	    -30.71770466	     16.57476514	     60.47763341	      0.00000000	     34.32000000
      5.98000000	      1.55406085	     -3.41143671	     -9.18188212	     -0.00423131	      0.00403036	     -0.00078352	    -21.04762432	     -4.01482222	     -9.73928172	     -3.80157488	     13.30281189	      5.13079362	    -31.38806286	     16.65662205	     60.76490986	      0.00000000	     34.32000000
      5.99000000	      1.42921000	     -3.39275143	     -9.22675594	     -0.00423131	      0.00403036	     -0.00078352	    -21.04937715	     -4.35803580	    -10.06754242	     -3.87753119	     12.59295014	      5.41749813	    -29.55008893	     17.82871598	     54.62027757	      0.00000000	     34.32000000
      6.00000000	      1.63399106	     -3.36040673	     -9.22742163	     -0.00423131	      0.00403036	     -0.00078352	    -21.15697767	     -4.31719475	    -10.20084896	     -3.88176602	     12.70410278	      5.38576898	    -29.95956864	     18.27025135	     54.66052175	      0.00000000	     34.32000000
      6.01000000	      1.62985448	     -3.19056899	     -9.15306223	     -0.00423131	      0.00403036	     -0.00078352	    -21.37217990	     -4.33137537	    -10.45088471	     -3.96045722	     12.91350474	      5.35473070	    -31.99763263	     18.22248593	     57.76484384	      0.00000000	     34.32000000
      6.02000000	      1.47993264	     -3.13209803	     -9.18844809	     -0.00423131	      0.00403036	     -0.00078352	    -21.45845950	     -4.59236912	    -10.77771015	     -4.05502904	     12.49436264	      5.55012014	    -30.93866158	     19.09400781	     50.66228121	      0.00000000	     34.32000000
      6.03000000	      1.60617479	     -2.94982588	     -9.20460765	     -0.00423131	      0.00403036	     -0.00078352	    -21.69379568	     -4.29847783	    -11.04077233	     -3.94363900	     12.87447751	      5.37795693	    -33.17800902	     18.16669687	     58.79407455	      0.00000000	     34.32000000
      6.04000000	      1.44211906	     -2.77810797	     -9.16198267	     -0.00423131	      0.00403036	     -0.00078352	    -21.85749471	     -4.54258603	    -11.50996918	     -4.02759842	     12.44706294	      5.57364211	    -33.13590739	     18.46888841	     56.17009278	      0.00000000	     34.32000000
      6.05000000	      1.51184708	     -2.86664737	     -9.25290966	     -0.00423131	      0.00403036	     -0.00078352	    -21.86159681	     -4.52100998	    -11.54467659	     -4.00107182	     12.40865779	      5.57702687	    -33.17761233	     18.50570124	     56.17576226	      0.00000000	     34.32000000
      6.06000000	      1.54212002	     -2.70789036	     -9.17238519	     -0.00423131	      0.00403036	     -0.00078352	    -21.93463969	     -4.51266301	    -11.49010709	     -4.08354831	     12.72782436	      5.49854359	    -35.75564267	     18.61116514	     56.32552376	      0.00000000	     34.32000000
      6.07000000	      1.58071163	     -2.69697891	     -9.10624988	     -0.00423131	      0.00403036	     -0.00078352	    -21.85831392	     -4.52032866	    -11.38370284	     -4.07218624	     12.67947962	      5.50848949	    -36.93669955	     18.63197037	     59.36230181	      0.00000000	     34.32000000
      6.08000000	      1.66251984	     -2.75100069	     -9.18810087	     -0.00423131	      0.00403036	     -0.00078352	    -21.84485417	     -4.50620589	    -11.39753802	     -4.04493766	     12.62070143	      5.51780675	    -36.95072369	     18.65056875	     59.36947861	      0.00000000	     34.32000000
